<?xml version="1.0" standalone="no"?>
<!DOCTYPE svg PUBLIC "-//W3C//DTD SVG 20010904//EN"
 "http://www.w3.org/TR/2001/REC-SVG-20010904/DTD/svg10.dtd">
<svg version="1.0" xmlns="http://www.w3.org/2000/svg"
 width="300.000000pt" height="300.000000pt" viewBox="0 0 300.000000 300.000000"
 preserveAspectRatio="xMidYMid meet">
<metadata>
Created by potrace 1.10, written by Peter Selinger 2001-2011
</metadata>
<g transform="translate(0.000000,300.000000) scale(0.100000,-0.100000)"
fill="#000000" stroke="none">
<path d="M1188 2576 c-37 -13 -138 -82 -138 -94 0 -4 -11 -19 -25 -34 -41 -44
-92 -198 -65 -198 5 0 11 7 11 15 5 52 63 167 108 211 131 132 330 115 446
-37 44 -58 136 -275 335 -792 24 -61 38 -113 34 -117 -5 -5 -26 36 -48 93
-199 524 -278 699 -360 793 -50 59 -95 77 -186 78 -79 0 -129 -18 -177 -64
-13 -11 -23 -18 -23 -14 0 4 -10 -2 -23 -14 -13 -12 -27 -19 -32 -15 -4 5 -5
3 -2 -4 4 -6 4 -19 1 -28 -5 -13 -8 -14 -15 -3 -9 13 -9 11 -13 -34 -1 -7 -4
-15 -8 -18 -7 -6 -100 -300 -204 -647 -38 -128 -71 -226 -74 -218 -5 14 -141
-429 -155 -500 -9 -52 3 -16 58 168 30 97 56 174 60 171 3 -3 3 5 0 18 -4 19
-3 20 7 8 9 -12 10 -8 5 20 -5 27 -4 31 5 20 8 -12 9 -8 4 15 -3 19 -2 25 3
17 7 -8 30 56 73 198 36 119 67 204 70 195 4 -10 11 3 19 37 25 100 143 483
163 530 17 41 58 93 58 74 0 -3 -13 -30 -29 -59 -40 -72 -167 -493 -403 -1342
-21 -77 -34 -110 -36 -93 -2 14 24 119 58 233 34 114 59 209 57 211 -2 3 -11
-19 -19 -48 -9 -29 -39 -129 -67 -221 -45 -149 -53 -193 -51 -259 1 -10 5 -18
10 -18 5 0 7 -7 3 -15 -3 -10 0 -15 8 -13 8 2 13 -2 12 -9 -1 -6 4 -17 12 -23
8 -7 15 -17 15 -23 0 -5 -9 -2 -20 8 -12 10 -18 25 -15 32 2 8 1 11 -4 8 -13
-7 -18 3 -35 66 -8 30 -15 45 -15 34 -1 -30 16 -84 36 -114 9 -14 18 -33 20
-41 5 -36 89 -71 169 -69 l49 2 -61 7 c-34 5 -78 16 -99 24 -34 14 -37 18 -24
31 12 12 19 12 54 0 22 -8 50 -14 62 -15 12 0 23 -6 25 -12 7 -20 78 39 93 77
8 17 30 88 51 156 45 153 53 169 106 208 52 38 65 38 340 10 205 -21 244 -30
234 -54 -3 -9 0 -12 10 -8 9 3 14 0 12 -8 -2 -7 3 -13 10 -14 17 0 43 -35 36
-47 -3 -5 -23 6 -45 23 -53 42 -101 58 -174 59 -33 0 -55 4 -48 8 6 4 -12 7
-40 7 -29 0 -106 4 -173 9 l-121 8 -37 -32 c-20 -18 -44 -47 -53 -64 -15 -30
-13 -29 29 12 64 62 80 64 301 42 291 -30 294 -30 352 -108 20 -26 42 -47 48
-47 7 0 12 -10 11 -23 0 -12 2 -20 5 -17 8 8 42 -85 36 -96 -4 -5 -2 -9 3 -9
14 0 35 -57 26 -71 -5 -8 -3 -9 6 -4 10 6 12 3 8 -13 -4 -12 -3 -20 1 -18 4 3
20 -21 36 -51 16 -31 41 -63 57 -73 15 -9 25 -20 21 -24 -4 -4 1 -4 11 0 17 6
16 8 -8 21 -14 7 -26 15 -26 17 0 6 84 -25 90 -33 3 -4 30 -13 60 -19 94 -18
125 23 94 126 -18 64 -229 616 -279 731 -18 42 -47 113 -66 158 -18 46 -34 81
-36 79 -2 -2 8 -32 22 -67 71 -173 155 -405 150 -417 -3 -8 0 -10 7 -6 7 5 9
0 6 -14 -4 -12 -2 -20 2 -17 12 7 23 -32 14 -46 -4 -7 -3 -9 4 -6 12 8 45 -80
35 -96 -4 -6 -1 -7 7 -2 10 6 12 3 8 -13 -4 -12 -2 -20 2 -17 12 7 23 -32 14
-46 -5 -8 -3 -9 6 -4 9 6 10 2 5 -15 -5 -17 -4 -21 6 -15 9 6 11 3 6 -9 -5
-11 -3 -15 5 -10 8 5 9 2 5 -9 -3 -10 -2 -17 3 -17 5 0 7 -7 4 -15 -4 -8 -1
-15 5 -15 6 0 8 -6 5 -14 -3 -7 1 -20 9 -27 7 -8 12 -20 9 -27 -2 -6 1 -12 7
-12 6 0 10 -3 9 -7 -1 -5 4 -21 10 -36 19 -45 15 -75 -13 -93 -20 -13 -31 -15
-48 -6 -12 6 -38 14 -57 18 -46 9 -100 37 -126 66 -29 31 -43 61 -104 214 -67
168 -94 215 -150 268 -41 38 -55 45 -116 54 -103 16 -292 34 -377 35 -133 2
-177 -46 -232 -258 -53 -206 -70 -223 -195 -194 -44 10 -80 33 -80 51 0 5 6 6
13 1 6 -4 21 -8 32 -9 11 -1 40 -7 64 -13 66 -19 82 2 138 179 52 165 91 227
172 274 22 13 134 10 336 -10 165 -15 222 -29 218 -51 -1 -6 13 -23 32 -38 37
-28 88 -102 119 -173 11 -23 21 -41 23 -39 6 7 -60 147 -69 147 -5 0 -7 4 -4
9 9 14 -55 93 -100 123 -42 28 -149 48 -256 48 -27 0 -48 3 -48 8 0 4 -55 8
-123 10 -141 3 -166 -6 -214 -80 -15 -24 -31 -45 -35 -48 -4 -3 -26 -66 -48
-140 -62 -201 -77 -222 -148 -199 -58 18 -106 73 -79 90 5 4 7 15 2 25 -6 16
-9 13 -17 -16 -7 -26 -6 -42 7 -69 14 -30 14 -33 1 -22 -9 8 -16 10 -16 5 -1
-12 -30 27 -30 40 0 5 7 1 15 -10 14 -17 14 -17 4 12 -8 24 -6 41 6 75 35 95
151 470 246 799 138 475 175 587 215 647 74 114 220 146 326 71 15 -10 27 -22
26 -26 -1 -4 11 -27 27 -52 33 -52 84 -160 148 -315 59 -144 116 -263 116
-247 1 7 -4 22 -10 33 -6 11 -9 25 -7 31 3 7 19 -30 37 -80 19 -51 31 -96 27
-99 -3 -3 -6 0 -6 7 0 7 -2 11 -5 8 -3 -3 -2 -13 1 -22 5 -12 9 -14 14 -6 3 6
21 -26 38 -70 32 -80 41 -120 22 -90 -5 8 -10 11 -10 5 0 -5 5 -17 10 -25 9
-13 10 -13 10 0 0 13 1 13 10 0 5 -8 10 -22 10 -30 0 -13 -2 -13 -11 0 -9 12
-10 12 -5 -3 3 -10 6 -22 6 -25 0 -4 5 0 10 8 8 13 10 13 10 1 0 -11 4 -10 16
5 13 16 15 16 10 2 -3 -10 -2 -18 3 -18 13 0 22 -43 11 -54 -5 -5 -12 2 -16
19 -7 28 -7 28 -16 6 -5 -14 -3 -31 4 -44 6 -12 45 -107 85 -212 204 -525 214
-556 194 -618 -17 -49 -42 -57 -126 -40 -186 37 -217 65 -290 263 -50 135 -86
204 -131 245 -14 13 -32 21 -40 18 -8 -3 -14 -1 -14 4 0 5 -8 10 -17 10 -88
-1 -127 4 -113 14 11 8 8 9 -14 4 -16 -3 -93 1 -172 10 -134 15 -145 15 -179
0 -19 -10 -45 -30 -56 -46 -11 -16 -24 -27 -28 -24 -4 2 -23 -44 -41 -103 -38
-125 -63 -175 -96 -193 -13 -7 -22 -14 -20 -16 2 -3 16 3 31 13 33 22 56 66
90 176 39 131 90 178 187 178 59 -1 418 -46 442 -56 16 -6 18 -4 12 12 -5 14
-4 16 4 8 6 -6 13 -20 14 -30 2 -11 7 -19 12 -19 16 0 34 -16 34 -28 0 -7 -4
-6 -11 3 -9 13 -10 13 -6 0 2 -8 10 -15 17 -15 7 0 15 -6 18 -14 3 -9 0 -11
-7 -6 -8 4 -7 -6 3 -30 9 -21 16 -39 16 -42 0 -2 5 -1 11 3 8 4 9 -1 4 -16 -5
-16 -4 -20 5 -15 9 5 10 1 5 -15 -5 -14 -3 -20 3 -16 6 4 20 -22 33 -61 28
-86 67 -165 78 -158 5 2 15 -3 22 -13 13 -15 12 -16 -3 -3 -10 7 -18 9 -18 3
0 -12 -26 -10 -37 3 -4 4 -2 5 5 1 16 -10 16 -9 -13 48 -14 27 -25 44 -25 37
0 -7 7 -26 16 -42 8 -17 13 -33 10 -36 -8 -9 -42 68 -92 215 -27 78 -59 155
-72 170 -13 15 -20 21 -16 13 6 -11 3 -13 -12 -7 -50 21 -82 26 -259 46 -104
11 -203 23 -220 25 -20 3 -25 2 -15 -4 8 -5 47 -11 85 -15 192 -18 396 -54
416 -72 30 -27 55 -79 100 -211 62 -181 99 -223 235 -269 83 -28 172 -30 197
-5 9 10 6 10 -18 1 -36 -14 -163 -3 -130 11 13 6 7 7 -20 4 -25 -3 -33 -2 -21
3 15 7 12 10 -19 19 -20 7 -44 9 -53 6 -11 -5 -13 -3 -7 8 4 8 5 11 0 7 -11
-10 -47 11 -40 23 4 6 13 5 25 -1 23 -12 33 -13 26 -2 -3 4 25 -2 62 -15 37
-12 90 -23 117 -23 36 0 46 -3 35 -10 -20 -13 0 -13 37 1 43 15 67 63 61 125
-3 28 -53 178 -116 344 -61 162 -114 307 -117 323 -4 15 -11 27 -16 27 -5 0
-6 7 -3 15 4 8 2 15 -2 15 -13 0 -15 58 -2 66 8 5 9 2 5 -9 -3 -10 -2 -17 3
-17 5 0 6 -7 3 -17 -5 -12 -3 -14 7 -8 8 5 11 4 6 -3 -3 -6 22 -87 58 -179 35
-92 90 -238 122 -323 32 -85 67 -163 78 -174 19 -19 19 -19 12 0 -4 10 -34 89
-66 174 -32 85 -159 421 -283 745 -124 325 -228 599 -231 610 -14 44 54 -110
114 -258 35 -86 65 -155 68 -153 17 18 -214 568 -278 660 -16 24 -45 55 -65
70 -20 16 -34 30 -31 33 11 11 78 -51 108 -98 34 -56 47 -65 22 -16 l-17 32
29 -25 28 -25 -25 35 c-34 46 -128 112 -149 105 -9 -3 -28 4 -43 15 -47 38
-189 58 -249 36z m402 -353 c72 -159 152 -354 147 -359 -6 -6 -32 50 -82 176
-18 47 -49 122 -69 168 -42 98 -39 110 4 15z m335 -772 c-5 -12 -10 -7 -21 18
-8 19 -12 42 -9 50 5 12 10 7 21 -18 8 -19 12 -42 9 -50z m-186 -511 c0 -8 -8
1 -18 20 -11 19 -16 39 -13 45 6 10 31 -41 31 -65z"/>
<path d="M1452 2572 c-19 -13 18 -22 93 -22 72 0 148 -19 207 -51 40 -23 119
-112 117 -134 0 -5 -6 -1 -12 9 -27 44 -78 93 -118 114 -27 14 -34 16 -19 5
30 -22 133 -131 139 -146 2 -7 10 -16 17 -22 6 -5 23 -41 37 -80 30 -87 154
-393 168 -418 5 -10 7 -23 3 -29 -4 -6 -3 -8 4 -4 10 6 214 -495 352 -867 35
-92 65 -166 67 -163 12 11 -173 498 -386 1015 -66 162 -119 296 -118 298 6 5
203 -463 317 -754 57 -145 105 -261 107 -259 8 7 -285 733 -461 1144 -90 211
-153 291 -254 322 -20 7 -52 18 -70 27 -40 17 -171 28 -190 15z"/>
<path d="M1192 2527 c-37 -11 -117 -78 -133 -111 -6 -11 3 -4 21 17 18 21 55
50 84 65 44 23 63 27 138 27 48 0 80 3 70 7 -26 10 -143 7 -180 -5z"/>
<path d="M1545 2518 c11 -7 42 -35 70 -63 27 -27 54 -49 59 -47 5 2 6 -3 3
-11 -3 -7 1 -14 8 -14 11 0 11 5 0 28 -17 31 -74 79 -125 103 -19 9 -26 11
-15 4z"/>
<path d="M1624 2514 c-6 -3 14 -31 45 -63 31 -32 59 -57 63 -54 13 7 -21 50
-63 78 -45 32 -46 44 -2 21 29 -15 106 -100 98 -108 -2 -2 5 -4 15 -5 16 -1
18 2 11 16 -19 35 -134 125 -153 120 -2 0 -8 -3 -14 -5z"/>
<path d="M1275 2425 c-5 -2 -22 -6 -37 -9 -65 -15 -124 -103 -169 -254 -9 -30
-15 -39 -21 -30 -6 9 -7 6 -4 -7 6 -23 -188 -715 -319 -1135 -23 -75 -39 -158
-28 -147 3 4 15 0 27 -8 11 -8 28 -15 38 -15 10 0 18 -4 18 -10 0 -20 19 -9
38 23 22 35 143 433 277 912 48 170 96 328 107 351 23 51 58 76 103 76 36 0
88 -23 67 -30 -7 -2 -20 2 -30 9 -16 13 -16 12 -1 -6 9 -11 33 -63 54 -115 21
-52 49 -119 62 -148 14 -29 53 -133 88 -230 34 -97 81 -225 104 -284 42 -110
47 -133 32 -142 -15 -10 -29 16 -66 120 -20 54 -42 113 -49 129 -7 17 -25 64
-40 105 -15 41 -36 98 -46 125 -11 28 -35 95 -53 150 -19 55 -44 122 -56 148
-11 27 -18 54 -14 60 3 7 3 9 -2 5 -4 -4 -15 -2 -24 4 -13 10 -14 10 -3 -2 19
-22 14 -35 -6 -17 -10 10 -28 17 -40 17 -16 0 -20 4 -15 16 5 13 15 15 45 11
38 -5 39 -5 22 14 -38 42 -94 14 -118 -59 -17 -53 -176 -633 -198 -727 -8 -33
-20 -59 -26 -58 -6 2 -16 -15 -22 -38 -6 -22 -14 -48 -17 -57 -6 -14 -5 -15 9
-2 9 8 16 17 16 20 -1 22 4 30 14 24 7 -4 8 -3 4 4 -4 7 7 20 28 33 31 18 34
23 25 41 -6 11 -8 36 -4 57 5 30 120 451 171 629 25 85 77 104 111 39 29 -56
63 -171 57 -191 -4 -16 -3 -17 4 -7 8 11 11 10 16 -6 4 -11 4 -29 0 -39 -5
-16 -4 -17 6 -4 9 12 10 9 6 -15 -5 -24 -4 -27 5 -15 9 12 10 11 6 -8 -8 -33
13 -88 25 -70 7 9 8 3 4 -17 -5 -20 -4 -25 3 -16 6 10 9 4 8 -20 0 -19 19 -83
42 -144 23 -60 44 -129 48 -152 8 -58 19 -55 17 5 -2 63 -2 64 -16 56 -8 -5
-9 -2 -4 11 9 25 -24 111 -36 93 -7 -9 -8 -4 -4 13 4 19 -19 94 -74 247 -73
202 -89 255 -75 240 15 -14 245 -666 245 -692 0 -24 -3 -28 -11 -16 -8 12 -9
10 -7 -10 2 -19 8 -24 23 -22 19 2 72 -40 69 -56 -1 -4 12 -23 28 -42 17 -19
25 -25 19 -13 -6 12 -7 24 -3 27 9 5 11 -3 15 -48 1 -13 6 -22 11 -18 5 3 7
-2 3 -11 -3 -10 -2 -17 3 -17 6 0 10 -5 10 -11 0 -6 34 -96 75 -200 41 -103
75 -191 75 -194 0 -3 -5 -3 -11 1 -18 11 7 -30 28 -47 17 -13 17 -13 1 7 -29
34 -20 40 12 9 16 -15 28 -31 25 -34 -2 -4 15 -8 38 -9 111 -8 111 -8 115 13
4 17 2 18 -12 6 -17 -14 -45 -10 -104 15 -20 8 -33 17 -29 20 3 3 15 0 27 -6
17 -9 21 -9 15 0 -4 7 1 14 15 17 20 5 20 7 -9 24 -39 23 -75 100 -195 409
-52 135 -115 292 -140 349 -25 57 -42 109 -39 114 3 6 2 7 -4 4 -5 -3 -20 27
-34 66 -13 40 -27 73 -31 75 -4 2 -4 10 -1 18 3 8 0 14 -7 14 -6 0 -8 5 -5 10
5 8 -48 170 -82 250 -3 8 -5 21 -4 29 1 7 -2 10 -8 6 -7 -3 -8 0 -5 9 3 9 -8
45 -24 81 -17 36 -26 65 -21 65 22 0 -36 80 -69 96 -79 37 -188 -6 -220 -88
-11 -28 -18 -35 -25 -26 -6 9 -7 8 -3 -5 3 -10 3 -30 0 -44 -5 -19 -9 -22 -16
-11 -7 10 -8 8 -4 -5 10 -32 -306 -1128 -335 -1164 -14 -16 -6 -28 14 -20 7 3
23 36 35 74 90 291 126 413 218 738 58 204 116 393 128 421 28 61 80 104 135
111 48 7 97 -11 113 -41 10 -19 8 -19 -16 3 -14 14 -29 21 -33 18 -3 -4 -1 -7
5 -7 19 0 51 -65 111 -226 33 -88 67 -177 76 -198 9 -21 14 -47 12 -58 -3 -10
-2 -18 2 -18 4 0 13 -18 20 -41 7 -22 28 -75 47 -117 21 -46 32 -83 29 -96 -4
-13 -3 -16 2 -9 14 20 119 -237 108 -265 -2 -7 -1 -11 4 -8 12 8 64 -140 55
-155 -4 -7 -3 -9 4 -5 13 8 26 -29 16 -45 -4 -7 -3 -9 3 -6 7 4 43 -77 49
-113 5 -28 72 -168 85 -175 5 -4 9 -11 9 -16 0 -6 -4 -7 -10 -4 -6 3 -7 -1 -4
-9 4 -9 1 -16 -6 -16 -9 0 -9 -4 1 -17 13 -16 12 -17 -3 -4 -10 7 -15 17 -12
22 2 5 -2 19 -10 31 -19 29 -81 177 -153 368 -87 225 -146 376 -173 435 -17
38 -31 79 -36 100 -1 6 -25 73 -53 150 -28 77 -49 146 -46 153 3 8 0 10 -6 6
-8 -4 -9 1 -4 16 5 17 4 21 -6 15 -9 -6 -11 -3 -6 9 5 11 3 15 -5 10 -8 -5 -9
2 -4 22 5 23 4 26 -5 14 -9 -12 -10 -11 -6 8 4 18 2 22 -10 18 -13 -5 -13 -4
-4 8 9 11 8 22 -5 50 -10 19 -20 33 -24 31 -4 -3 -6 7 -4 20 1 16 -2 23 -9 18
-7 -4 -8 0 -4 11 5 12 -3 27 -23 48 -27 26 -35 29 -68 24 -20 -4 -45 -7 -54
-8 -9 -1 -15 -4 -13 -7 3 -2 -7 -17 -20 -33 -28 -33 -42 -77 -149 -458 -150
-537 -240 -835 -258 -857 -24 -29 -67 -1 -69 45 l-1 27 -8 -25 -8 -25 -1 25
c-1 14 5 35 13 46 19 27 95 270 231 744 163 569 194 647 273 693 57 34 164 21
225 -26 28 -23 20 -30 -10 -9 -47 32 -60 36 -25 7 37 -31 76 -103 158 -296 31
-74 68 -156 82 -183 20 -39 23 -52 14 -67 -13 -20 -5 -52 10 -43 6 4 6 9 -2
14 -9 6 -9 12 1 27 10 17 8 28 -10 69 -13 27 -29 63 -37 79 -7 17 -39 91 -69
165 -31 74 -65 150 -76 169 -11 18 -18 36 -15 38 10 10 47 -65 128 -254 45
-106 83 -191 85 -189 4 4 -128 319 -164 391 -34 66 -79 122 -112 139 -26 14
-118 28 -136 21z m230 -901 c4 -25 3 -24 -8 6 -8 19 -17 46 -20 60 -5 19 -3
17 8 -6 7 -17 16 -44 20 -60z m223 -356 c-5 -14 -23 -10 -23 5 -1 6 -6 11 -12
10 -7 -1 -9 6 -5 19 l5 21 19 -23 c10 -13 17 -27 16 -32z"/>
<path d="M1221 2328 c-19 -12 -41 -34 -50 -48 -15 -25 -15 -25 5 -8 54 47 148
61 210 32 31 -15 39 -25 35 -47 -1 -4 12 -33 28 -65 16 -31 59 -129 97 -217
64 -154 106 -235 89 -175 -4 14 -11 29 -16 34 -5 6 -9 16 -9 23 0 7 -12 37
-26 66 -14 28 -36 79 -48 112 -13 33 -31 77 -40 98 -9 20 -12 37 -7 37 5 0 13
-9 16 -21 4 -11 9 -18 11 -16 3 2 0 16 -7 30 -8 17 -17 23 -28 19 -14 -5 -14
-4 -1 13 11 14 12 17 1 11 -9 -6 -12 -5 -9 5 3 8 -2 20 -11 27 -12 10 -12 11
-1 6 23 -12 -24 58 -54 81 -18 13 -47 20 -89 23 -52 3 -67 0 -96 -20z"/>
<path d="M1738 2314 c-3 -3 34 -105 84 -227 49 -122 97 -251 107 -287 10 -36
66 -191 123 -345 107 -285 257 -711 280 -797 6 -27 16 -48 21 -48 5 0 6 8 2
18 -3 9 -8 32 -11 50 -2 18 -20 79 -40 135 -20 56 -63 181 -96 277 -33 96
-104 290 -158 431 -55 140 -101 273 -104 295 -6 46 -171 457 -186 462 -6 2 -8
8 -4 13 3 5 0 9 -6 9 -6 0 -8 5 -5 10 7 11 2 14 -7 4z"/>
<path d="M1680 2306 c0 -2 15 -40 33 -83 79 -184 208 -515 203 -521 -3 -3 -6
1 -6 8 0 7 -2 11 -5 8 -3 -2 20 -72 51 -154 129 -346 324 -895 335 -943 5 -25
4 -42 -5 -56 -7 -11 -21 -44 -30 -73 -13 -37 -28 -60 -54 -80 -32 -24 -43 -27
-111 -26 -53 1 -98 8 -148 26 -40 13 -68 19 -62 12 12 -14 102 -40 193 -54
132 -21 406 -12 406 12 0 2 -54 1 -120 0 -88 -3 -120 0 -120 8 0 7 14 30 31
51 17 21 26 39 21 39 -6 0 -5 19 1 50 5 27 14 50 19 50 5 0 7 4 3 10 -3 5 -6
25 -7 45 -1 19 -5 35 -10 35 -5 0 -7 4 -4 9 8 12 -155 485 -288 838 -58 154
-106 286 -106 291 0 18 -171 437 -182 443 -5 3 -9 9 -8 13 4 14 -9 46 -19 46
-6 0 -11 -2 -11 -4z"/>
<path d="M1790 2306 c0 -3 7 -24 16 -46 11 -26 20 -38 26 -32 6 6 5 18 -3 33
-13 25 -39 54 -39 45z"/>
<path d="M1857 2283 c-2 -5 38 -111 90 -238 51 -126 93 -218 93 -204 0 15 -7
44 -16 65 -9 22 -21 50 -27 64 -6 14 -10 28 -9 33 1 4 -3 7 -9 7 -5 0 -7 5 -4
10 3 6 1 10 -4 10 -6 0 -10 3 -10 8 4 21 -3 42 -17 56 -8 9 -12 20 -9 26 3 5
1 10 -5 10 -6 0 -8 5 -5 10 3 6 1 10 -5 10 -6 0 -9 4 -5 9 6 10 -25 84 -38 89
-4 2 -5 8 -1 13 3 5 0 9 -6 9 -6 0 -8 5 -5 10 3 6 4 10 1 10 -3 0 -7 -3 -9 -7z"/>
<path d="M1836 2212 c-3 -5 12 -54 35 -108 61 -150 119 -312 123 -342 2 -15
18 -63 36 -107 68 -169 127 -332 236 -650 76 -220 113 -317 112 -290 -2 46
-107 357 -266 790 -61 165 -116 320 -121 345 -8 37 -135 357 -146 368 -2 2 -6
-1 -9 -6z"/>
<path d="M1523 2110 c13 -40 100 -240 103 -237 5 4 -80 210 -97 235 -7 12 -9
13 -6 2z"/>
<path d="M1259 2025 c-1 -3 -3 -9 -4 -15 -1 -5 -3 -17 -4 -26 0 -8 -6 -12 -11
-9 -7 4 -9 -3 -5 -22 5 -23 4 -25 -5 -13 -10 12 -11 11 -6 -9 3 -13 2 -38 -1
-55 -6 -27 -7 -28 -15 -11 -7 17 -8 16 -4 -4 3 -13 2 -38 -1 -55 -6 -26 -7
-28 -15 -11 -5 13 -6 8 -2 -15 3 -23 2 -30 -4 -22 -7 11 -11 7 -16 -13 -4 -14
-4 -30 -1 -35 3 -4 0 -32 -7 -60 -9 -41 -14 -48 -20 -34 -6 13 -7 11 -3 -9 3
-15 1 -46 -5 -68 -6 -23 -9 -43 -7 -45 2 -3 32 96 66 218 87 312 79 291 107
285 20 -3 22 -2 13 14 -9 17 -47 27 -50 14z"/>
<path d="M1285 1982 c6 -4 16 -19 22 -34 11 -24 6 -52 -32 -205 -48 -187 -54
-226 -30 -179 8 15 15 36 15 46 0 9 18 79 40 154 l40 137 -19 45 c-11 24 -26
44 -33 44 -8 0 -9 -3 -3 -8z"/>
<path d="M1550 1898 c5 -13 38 -99 74 -193 35 -93 85 -216 110 -271 28 -62 44
-109 40 -120 -4 -14 -3 -15 4 -6 12 17 58 -101 46 -120 -4 -7 -3 -10 1 -5 5 4
41 -82 82 -190 83 -227 132 -328 148 -311 4 3 -14 48 -38 99 -25 52 -73 168
-107 259 -34 91 -95 242 -136 337 -41 95 -74 177 -74 183 0 5 -4 10 -8 10 -5
0 -9 6 -9 13 0 16 -73 210 -82 217 -3 3 -6 10 -6 15 0 17 -40 105 -47 105 -4
0 -3 -10 2 -22z"/>
<path d="M1347 1840 c-16 -40 -87 -308 -86 -325 0 -11 22 54 50 145 27 91 47
172 45 180 -3 13 -4 13 -9 0z"/>
<path d="M2042 1799 c-6 -15 18 -90 86 -273 52 -138 142 -388 199 -556 57
-168 101 -285 97 -260 -3 25 -22 88 -41 140 -56 153 -103 293 -99 297 1 2 40
-95 86 -214 46 -120 85 -220 88 -223 2 -3 1 15 -3 40 -12 70 -387 1010 -406
1018 -5 2 -4 14 1 28 5 13 7 24 4 24 -2 0 -8 -9 -12 -21z"/>
<path d="M1336 1667 c-21 -76 -36 -140 -33 -144 8 -7 8 -6 47 136 17 63 30
121 28 130 -2 8 -21 -47 -42 -122z"/>
<path d="M2089 1775 c-3 -3 44 -129 105 -280 60 -151 111 -273 113 -271 2 2
-43 122 -100 267 -58 145 -106 270 -108 277 -3 7 -7 11 -10 7z"/>
<path d="M1366 1639 c-35 -134 -45 -203 -33 -224 13 -24 2 -29 -18 -9 -9 9
-15 25 -12 34 3 10 0 24 -5 31 -6 9 -8 -2 -4 -34 4 -36 3 -47 -7 -44 -6 2 -20
-3 -30 -11 -17 -15 -17 -16 5 -29 18 -9 19 -12 6 -13 -16 0 -32 16 -33 32 0
16 -15 19 -21 4 -8 -21 -27 -20 -48 3 -16 17 -13 51 4 51 5 0 8 15 7 33 -1 17
2 52 7 77 13 71 -9 36 -32 -50 -11 -41 -23 -92 -26 -113 -4 -22 -11 -35 -17
-31 -7 4 -9 -3 -7 -17 3 -24 6 -24 198 -40 107 -9 205 -19 217 -23 28 -9 36 6
27 47 -4 17 -9 26 -11 20 -3 -7 -14 -14 -26 -14 -17 -1 -15 -3 8 -9 28 -7 29
-8 5 -10 -23 -1 -24 -2 -5 -11 15 -7 10 -8 -20 -4 -22 2 -104 9 -183 16 -191
15 -218 24 -74 25 81 0 103 -2 72 -7 -29 -5 -14 -6 40 -3 47 3 105 8 130 11
43 7 44 7 15 14 -16 4 -52 6 -80 6 l-50 0 55 -7 55 -7 -55 -1 c-64 -1 -131 17
-138 37 -4 11 1 10 19 -2 13 -10 33 -17 44 -16 19 0 19 1 -1 9 -12 5 -25 13
-28 19 -4 6 10 3 31 -6 32 -13 48 -14 105 -3 38 6 68 16 68 22 0 6 -8 7 -17 3
-10 -3 -42 -11 -71 -17 -46 -10 -56 -9 -70 6 -18 18 -26 98 -13 131 5 11 16
54 26 95 10 41 21 80 25 85 4 6 4 18 1 29 -5 13 -16 -14 -35 -85z"/>
<path d="M1686 1720 c3 -14 26 -74 50 -133 42 -103 56 -151 34 -117 -12 18
-12 2 0 -25 8 -19 9 -19 9 -1 2 38 17 7 77 -157 14 -37 22 -72 18 -79 -4 -6
-3 -8 3 -5 11 7 37 -52 28 -61 -3 -3 -5 1 -5 8 0 7 -2 11 -5 8 -10 -9 7 -38
18 -31 6 4 8 -2 4 -16 -3 -13 -3 -20 1 -17 8 9 43 -85 35 -97 -4 -6 -1 -7 7
-2 10 6 12 4 7 -8 -3 -9 -2 -17 2 -19 4 -2 20 -39 35 -83 16 -44 44 -110 64
-147 36 -67 36 -67 16 -89 -19 -21 -19 -21 6 -18 19 3 24 9 22 24 -5 29 -226
605 -266 695 -19 41 -55 129 -81 195 -48 126 -90 217 -79 175z"/>
<path d="M1745 1668 c7 -38 25 -82 30 -76 3 2 -5 26 -16 54 -11 27 -17 37 -14
22z"/>
<path d="M1407 1655 c-4 -17 -15 -65 -26 -108 -10 -43 -16 -75 -13 -72 3 3 12
-5 19 -17 12 -22 12 -21 13 15 0 25 -4 36 -11 31 -7 -4 -9 0 -6 12 3 11 11 39
17 64 7 25 15 50 20 55 4 6 4 19 0 30 -6 16 -8 15 -13 -10z"/>
<path d="M1434 1610 c7 -33 -4 -71 -17 -63 -18 11 1 -120 20 -134 9 -7 12 -13
6 -13 -7 0 -18 7 -27 15 -17 17 -26 19 -26 5 0 -18 39 -31 72 -22 l32 8 -32
23 c-18 12 -32 30 -32 39 0 15 2 15 10 2 8 -13 10 -13 10 2 0 9 -4 18 -9 20
-5 2 -4 18 3 39 10 28 10 42 -1 70 -8 20 -11 24 -9 9z"/>
<path d="M1081 1437 c-13 -45 -21 -98 -18 -117 l4 -35 1 39 c1 22 11 73 23
114 11 40 19 76 16 78 -2 2 -14 -33 -26 -79z"/>
<path d="M1196 1434 c-9 -24 -7 -34 8 -34 18 0 27 37 11 44 -7 2 -16 -2 -19
-10z"/>
<path d="M1081 1333 c0 -23 4 -45 10 -48 15 -10 24 2 11 17 -5 7 -12 27 -15
43 -3 24 -4 22 -6 -12z"/>
<path d="M2436 1030 c4 -14 15 -43 25 -65 11 -22 16 -29 13 -15 -4 14 -15 43
-25 65 -11 22 -16 29 -13 15z"/>
<path d="M1084 938 c-17 -18 -51 -80 -74 -136 -33 -77 -53 -111 -79 -133 -55
-45 -91 -47 -241 -14 -19 4 -16 1 8 -10 18 -9 81 -21 139 -27 115 -13 281 0
378 28 l50 14 -60 -6 c-33 -3 -97 -8 -142 -10 -91 -6 -100 1 -58 40 27 25 35
47 10 26 -20 -17 -19 -9 7 47 12 27 29 64 38 84 19 43 64 99 79 99 6 0 8 -7 5
-15 -4 -8 -1 -15 5 -15 6 0 11 6 11 14 0 8 5 18 11 22 8 4 9 -4 5 -27 -3 -19
-3 -27 1 -19 7 17 29 40 38 40 3 0 3 -9 0 -21 -7 -20 -6 -20 20 -3 l28 18 -8
-24 c-4 -14 -17 -46 -29 -71 -20 -42 -20 -45 -4 -35 15 9 26 26 33 56 6 22 26
59 34 65 17 10 13 -12 -9 -55 -25 -50 -25 -58 0 -35 12 11 29 20 38 21 9 2 24
13 32 26 8 12 22 30 31 38 14 15 4 17 -110 29 -69 7 -133 14 -142 17 -8 2 -28
-10 -45 -28z"/>
<path d="M1653 805 c13 -70 20 -93 43 -139 13 -28 24 -55 24 -62 0 -6 7 -17
15 -24 10 -8 -1 33 -29 115 -46 129 -63 166 -53 110z"/>
<path d="M1322 811 c-18 -11 7 -21 51 -21 23 1 28 3 17 9 -28 16 -55 21 -68
12z"/>
<path d="M2521 733 c0 -13 -5 -23 -11 -23 -5 0 -10 -7 -10 -16 0 -21 -31 -86
-38 -79 -3 2 -12 -4 -19 -15 -8 -11 -18 -18 -23 -15 -5 3 -14 -5 -20 -17 -11
-22 -10 -22 4 -4 9 11 16 16 16 12 0 -4 18 6 39 23 42 33 77 104 68 137 -4 16
-5 15 -6 -3z"/>
</g>
</svg>
